<svg id="SvgjsSvg1084" width="288" height="288" xmlns="http://www.w3.org/2000/svg" version="1.1" xmlns:xlink="http://www.w3.org/1999/xlink" xmlns:svgjs="http://svgjs.com/svgjs"><defs id="SvgjsDefs1085"></defs><g id="SvgjsG1086"><svg xmlns="http://www.w3.org/2000/svg" enable-background="new 0 0 512 512" viewBox="0 0 512 512" width="288" height="288"><path d="M392.511,204.032c-6.832-17.225-17.045-32.705-29.854-45.654c-2.51-2.561-5.152-4.986-7.867-7.33l1.688,8.506l0.994,5.049
		c0.584,2.977-1.053,5.955-3.854,7.092l-12.867,5.107c-2.072,0.846-3.59,2.742-3.881,4.959c-0.818,6.07-2.395,11.938-4.67,17.48
		c-0.877,2.133-0.496,4.611,0.99,6.393l8.58,10.271c1.957,2.334,1.957,5.75,0.029,8.084l-12.344,14.912
		c-1.957,2.336-5.281,2.979-7.938,1.488l-12.463-6.914c-1.953-1.111-4.346-1.082-6.244,0.057
		c-4.873,2.947-10.184,5.311-15.816,7.063c-2.217,0.672-3.822,2.539-4.26,4.787l-2.48,12.752c-0.584,2.977-3.18,5.135-6.246,5.105
		l-19.348-0.145c-3.066-0.029-5.635-2.188-6.189-5.193l-2.391-13.426c-0.381-2.219-1.928-4.057-4.027-4.814
		c-5.193-1.838-10.158-4.291-14.766-7.238c-1.896-1.227-4.32-1.283-6.332-0.203l-10.975,5.895c-2.654,1.43-5.982,0.758-7.879-1.605
		l-12.141-15.115c-1.896-2.365-1.838-5.75,0.117-8.055l7.879-9.164c1.518-1.75,1.957-4.203,1.109-6.363
		c-1.432-3.766-2.6-7.674-3.387-11.762c-0.262-1.252-0.465-2.479-0.641-3.732c-0.32-2.189-1.779-4.057-3.822-4.902l-13.338-5.547
		c-2.801-1.164-4.377-4.172-3.764-7.148l1.109-5.166l1.949-9.115c-2.449,2.092-4.842,4.252-7.143,6.514
		c-25.115,24.656-40.711,58.996-40.803,96.992v22.539c0,2.049-0.346,4.094-0.988,6.051l-18.492,62.996
		c-0.852,3.289,1.449,6.578,4.852,6.9l22.24,2.139c3.959,0.367,7.178,3.334,7.867,7.244l2.969,16.514h28.404v13.801h-25.943
		l5.818,32.385c1.217,6.83,7.176,11.82,14.146,11.82h55.061l0.156,56.164c0,6.484,5.266,11.752,11.775,11.752h114.563
		c6.488,0,11.752-5.268,11.752-11.752l-0.154-79.898c0,0,35.211-125.949,36.752-134.826c1.334-7.637,2.027-15.502,2.027-23.553
		c0-12.559-1.703-24.703-4.877-36.248C395.845,213.21,394.282,208.565,392.511,204.032z" fill="#4cd8c2" class="svgShape color000000-0 selectable"></path><path d="M188.155,145.685h37.59c-0.686-1.139-0.941-2.545-0.494-3.955l25.781-80.031c0.639-2.025,2.52-3.402,4.643-3.402h28.416
		c3.355,0,5.705,3.316,4.592,6.482l-19.434,52.316c-1.111,3.168,1.238,6.482,4.594,6.482h23.365c3.707,0,6.051,3.973,4.268,7.215
		l-34.547,62.813c-3.016,5.486-11.389,2.252-9.932-3.838l8.539-35.705c0.73-3.059-1.588-5.998-4.736-5.998h-30.906
		c-1.648,0-3.061-0.805-3.932-2c-3.775,6.646-5.979,14.301-5.979,22.494c0,25.297,20.506,45.803,45.805,45.803
		c25.295,0,45.803-20.506,45.803-45.803c0-8.346-2.275-16.141-6.184-22.873h45.357c28.75,0,52.004-23.486,51.66-52.303
		c-0.346-27.439-22.727-50.209-50.143-50.992c-5.105-0.139-10.049,0.459-14.719,1.703c-6.924,1.814-14.283-1.127-17.871-7.314
		c-10.049-17.365-28.818-29.027-50.324-29.027c-21.482,0-40.25,11.662-50.301,29.004c-3.564,6.164-10.926,9.107-17.803,7.291
		c-4.668-1.219-9.613-1.816-14.719-1.656c-27.369,0.828-49.705,23.598-50.049,50.992
		C136.151,122.198,159.405,145.685,188.155,145.685z" fill="#4cd8c2" class="svgShape color000000-1 selectable"></path></svg></g></svg>