<svg id="SvgjsSvg1026" width="288" height="288" xmlns="http://www.w3.org/2000/svg" version="1.1" xmlns:xlink="http://www.w3.org/1999/xlink" xmlns:svgjs="http://svgjs.com/svgjs"><defs id="SvgjsDefs1027"></defs><g id="SvgjsG1028"><svg xmlns="http://www.w3.org/2000/svg" fill-rule="evenodd" stroke-linejoin="round" stroke-miterlimit="2" clip-rule="evenodd" viewBox="0 0 32 32" width="288" height="288"><path d="M138,141C138.552,141 139,140.552 139,140C139,133.377 133.623,128 127,128C120.377,128 115,133.377 115,140C115,140.552 115.448,141 116,141L138,141ZM127,113C123.137,113 120,116.137 120,120C120,123.863 123.137,127 127,127C130.863,127 134,123.863 134,120C134,116.137 130.863,113 127,113Z" transform="translate(-111 -111)" fill="#8b8b8b" class="svgShape color000000-0 selectable"></path></svg></g></svg>